<mxfile>
    <diagram id="nlFdUUBXE-NVgg7eKBGd" name="Page-1">
        <mxGraphModel dx="294" dy="713" grid="1" gridSize="10" guides="1" tooltips="1" connect="1" arrows="1" fold="1" page="1" pageScale="1" pageWidth="850" pageHeight="1100" math="0" shadow="0">
            <root>
                <mxCell id="0"/>
                <mxCell id="1" parent="0"/>
                <mxCell id="4" value="" style="edgeStyle=orthogonalEdgeStyle;rounded=0;orthogonalLoop=1;jettySize=auto;html=1;" edge="1" parent="1" source="2" target="3">
                    <mxGeometry relative="1" as="geometry"/>
                </mxCell>
                <mxCell id="2" value="input을 받아서 ' ; '을 기준으로 2차원 배열을 만든다. &lt;br&gt;(char **minishell_split(char *line, char c);" style="rounded=1;whiteSpace=wrap;html=1;" vertex="1" parent="1">
                    <mxGeometry x="75" y="140" width="220" height="60" as="geometry"/>
                </mxCell>
                <mxCell id="6" value="" style="edgeStyle=orthogonalEdgeStyle;rounded=0;orthogonalLoop=1;jettySize=auto;html=1;" edge="1" parent="1" source="3" target="5">
                    <mxGeometry relative="1" as="geometry"/>
                </mxCell>
                <mxCell id="8" value="" style="edgeStyle=orthogonalEdgeStyle;rounded=0;orthogonalLoop=1;jettySize=auto;html=1;" edge="1" parent="1" source="3" target="7">
                    <mxGeometry relative="1" as="geometry"/>
                </mxCell>
                <mxCell id="3" value="' ; '가 있다." style="rhombus;whiteSpace=wrap;html=1;rounded=1;" vertex="1" parent="1">
                    <mxGeometry x="145" y="285" width="80" height="80" as="geometry"/>
                </mxCell>
                <mxCell id="5" value="display error" style="whiteSpace=wrap;html=1;rounded=1;" vertex="1" parent="1">
                    <mxGeometry x="285" y="295" width="120" height="60" as="geometry"/>
                </mxCell>
                <mxCell id="12" value="" style="edgeStyle=orthogonalEdgeStyle;rounded=0;orthogonalLoop=1;jettySize=auto;html=1;" edge="1" parent="1" source="7" target="11">
                    <mxGeometry relative="1" as="geometry"/>
                </mxCell>
                <mxCell id="7" value="while문을 이용해서 char *cmds 배열을 하나씩 run 관련 함수로 넘긴다.&lt;br&gt;while (cmds[i]) {&amp;nbsp; run(cmds[i]);&amp;nbsp; }" style="whiteSpace=wrap;html=1;rounded=1;" vertex="1" parent="1">
                    <mxGeometry x="92.5" y="455" width="185" height="65" as="geometry"/>
                </mxCell>
                <mxCell id="9" value="No" style="text;html=1;strokeColor=none;fillColor=none;align=center;verticalAlign=middle;whiteSpace=wrap;rounded=0;" vertex="1" parent="1">
                    <mxGeometry x="225" y="300" width="40" height="20" as="geometry"/>
                </mxCell>
                <mxCell id="10" value="Yes" style="text;html=1;strokeColor=none;fillColor=none;align=center;verticalAlign=middle;whiteSpace=wrap;rounded=0;" vertex="1" parent="1">
                    <mxGeometry x="145" y="400" width="40" height="20" as="geometry"/>
                </mxCell>
                <mxCell id="11" value="' | '를 기준으로 다시 2차원 배열 생성 -&amp;gt; minishell_split(cmds[i], '|');&lt;br&gt;while (cmds[i]) {&amp;nbsp; run(cmds[i])&amp;nbsp; };로&amp;nbsp;" style="whiteSpace=wrap;html=1;rounded=1;" vertex="1" parent="1">
                    <mxGeometry x="87.5" y="610" width="195" height="55" as="geometry"/>
                </mxCell>
            </root>
        </mxGraphModel>
    </diagram>
</mxfile>